<svg xmlns="http://www.w3.org/2000/svg" width="140" height="48" viewBox="0 0 140 48">
    <g fill="none" fill-rule="evenodd">
        <path fill="#D82335" d="M0 48h140V0H0z"/>
        <path fill="#FFFFFE" d="M128.493 33.525V29.25h-.784l-2.08 2.718V29.25h-.905v4.275h.784l2.08-2.717v2.717h.905zm-1.9-5.344a.35.35 0 0 1-.361-.366h-.603c0 .55.392.947.965.947.572 0 .965-.397.965-.947h-.604a.35.35 0 0 1-.361.366zm-3.14 5.344V29.25h-.784l-2.08 2.718V29.25h-.905v4.275h.784l2.08-2.717v2.717h.905zm-7.422 0h.905v-3.45h1.96v-.825h-2.865v4.275zm-5.465-2.137c0 1.221.995 2.229 2.292 2.229 1.297 0 2.291-1.008 2.291-2.23 0-1.22-.994-2.229-2.291-2.229s-2.292 1.008-2.292 2.23zm.935 0c0-.794.603-1.405 1.357-1.405s1.357.611 1.357 1.405c0 .793-.603 1.404-1.357 1.404s-1.357-.61-1.357-1.404zm-1.816-2.138h-3.045v1.32c0 1.825-.302 2.13-.724 2.13-.151 0-.302-.06-.302-.06v.873s.241.104.543.104c.814 0 1.387-.58 1.387-3.054v-.488h1.236v3.45h.905V29.25zm-8.993 2.138c0 1.221.995 2.229 2.292 2.229 1.297 0 2.291-1.008 2.291-2.23 0-1.22-.994-2.229-2.291-2.229s-2.292 1.008-2.292 2.23zm.935 0c0-.794.603-1.405 1.357-1.405s1.357.611 1.357 1.405c0 .793-.603 1.404-1.357 1.404s-1.357-.61-1.357-1.404zm-1.816-2.138h-.905v1.71h-1.809v-1.71h-.905v4.275h.905v-1.74h1.81v1.74h.904V29.25zm-6.457 2.718l1.025 1.557h1.025l-1.477-2.229 1.357-2.046h-1.026l-.904 1.374-.905-1.374h-1.025l1.357 2.046-1.478 2.229h1.025l1.026-1.557zm-4.86.733v-.947h1.72v-.824h-1.72v-.855h2.202v-.825H87.59v4.275h3.166v-.824h-2.262zm-5.07-3.45v.824h1.207v3.45h.904v-3.45h1.206v-.825h-3.316zM130.275 24.123l1.027 1.654h1.027l-1.48-2.368 1.359-2.174h-1.027l-.906 1.46-.905-1.46h-1.027l1.359 2.174-1.48 2.368h1.027l1.026-1.654zm-6.557.778v-1.297h.785c.363 0 .635.291.635.648a.635.635 0 0 1-.635.65h-.785zm.816.876c.875 0 1.51-.668 1.51-1.525 0-.863-.635-1.525-1.51-1.525h-.816v-1.492h-.906v4.542h1.722zm1.992 0h.907v-4.542h-.907v4.542zm-6.345-3.731c.301 0 .483.194.483.487 0 .292-.182.486-.483.486h-.846v-.973h.846zm-.846 2.92v-1.168h.966c.332 0 .574.26.574.584a.568.568 0 0 1-.574.584h-.966zm1.009.811c.863 0 1.437-.629 1.437-1.33 0-.779-.695-1.071-.695-1.071s.483-.292.483-.94c0-.617-.543-1.201-1.328-1.201h-1.812v4.542h1.915zm-7.388-2.271c0 1.298.997 2.369 2.295 2.369 1.299 0 2.295-1.071 2.295-2.37 0-1.297-.996-2.367-2.295-2.367-1.298 0-2.295 1.07-2.295 2.368zm.936 0c0-.844.604-1.493 1.36-1.493.754 0 1.358.65 1.358 1.493 0 .844-.604 1.493-1.359 1.493s-1.359-.65-1.359-1.493zm-3.237-2.368c-1.3 0-2.295 1.07-2.295 2.368 0 1.298.996 2.369 2.295 2.369 1.177 0 1.781-.909 1.781-.909l-.544-.616s-.422.649-1.237.649c-.786 0-1.39-.65-1.39-1.493 0-.844.604-1.493 1.39-1.493.785 0 1.177.65 1.177.65l.574-.617s-.574-.908-1.751-.908zm-3.327.097h-.905v1.817h-1.812v-1.817h-.906v4.542h.906v-1.85h1.812v1.85h.905v-4.542zm-5.742 3.471l.363 1.071h.966l-1.66-4.542h-.967l-1.66 4.542h.966l.362-1.07h1.63zm-.301-.843h-1.027l.513-1.493.514 1.493zm-3.448-2.628h-.905v1.817H95.12v-1.817h-.906v4.542h.906v-1.85h1.812v1.85h.905v-4.542zm-4.896 4.542v-4.542h-.785l-2.083 2.888v-2.888h-.907v4.542h.786l2.083-2.888v2.888h.906zm-5.651-2.336c0 .584-.393 1.006-1.027 1.038v-2.076c.634.032 1.027.454 1.027 1.038zm-1.027 1.882c1.148-.032 1.933-.876 1.933-1.882 0-1.006-.785-1.85-1.933-1.882v-.487h-.906v.487c-1.147.032-1.932.876-1.932 1.882 0 1.006.785 1.85 1.932 1.882v.584h.906v-.584zm-1.932-1.882c0-.584.392-1.006 1.026-1.038v2.076c-.634-.032-1.026-.454-1.026-1.038zM102.978 15.05c.363 0 .635.257.635.572 0 .315-.272.573-.635.573h-.847V15.05h.847zm-1.754-.772v4.005h.907v-1.316h.877c.877 0 1.513-.584 1.513-1.345 0-.755-.636-1.344-1.513-1.344h-1.784zm-4.177 0v.772h1.21v3.233h.906V15.05h1.21v-.772h-3.326zm-.852 0h-.907v1.602h-1.815v-1.602h-.907v4.005h.907v-1.63h1.815v1.63h.907v-4.005zm-6.93 3.232v-.886h1.724v-.773h-1.724v-.8h2.208v-.773h-3.115v4.005h3.175v-.773h-2.268zm-5.84.773h3.144v.83h.908V17.51h-.514v-3.232h-.907v3.232h-1.724v-3.232h-.907v4.005zM43.603 33.617h4.85v-1.44c5.123 0 9.081-2.745 9.081-8.106 0-5.305-3.997-8.106-9.082-8.106v-1.687h-4.85v1.687c-5.126 0-9.081 2.74-9.081 8.106 0 5.328 3.98 8.106 9.082 8.106v1.44zm4.85-5.373v-8.345c2.682 0 4.568 1.391 4.568 4.172 0 2.81-1.863 4.173-4.569 4.173zm-9.448-4.173c0-2.781 1.922-4.172 4.598-4.172v8.345c-2.699 0-4.598-1.363-4.598-4.173zM75.753 14.278h-16.3v4.31h5.662v15.029h4.947v-15.03h5.691v-4.31M24.86 29.937h-6.536v-15.66h-4.9v20.114h14.09v2.127h4.455l.634-6.58h-2.816v-15.66h-4.928v15.66"/>
    </g>
</svg>
